<svg width="140" height="140" viewBox="0 0 140 140" fill="none" xmlns="http://www.w3.org/2000/svg">
<path d="M69.6211 0L9 34.9989V105L69.6211 140L130.241 105V34.9989L69.6211 0ZM125.941 68.6122L99.4122 22.1667L125.941 37.4844V68.6122ZM110.856 73.6389C111.382 73.01 111.783 72.2722 112.022 71.4644L125.941 71.5967V99.9056L110.856 73.6389ZM44.38 46.0944C44.0211 46.0356 43.6533 46.0044 43.2789 46.0044C39.5267 46.0044 36.4811 49.0467 36.4811 52.8011C36.4811 54.4622 37.0778 55.9844 38.0689 57.1656L32.5922 66.7711H20.1433L43.4911 26.76L49.4822 37.1433L44.38 46.0944ZM53.5511 125.754L13.4889 102.623H53.55V125.753L53.5511 125.754ZM30.1411 71.0722L13.3022 100.607V71.0711H30.14L30.1411 71.0722ZM51.9511 32.8144L44.3122 19.58L66.9456 6.51111L51.9511 32.8133V32.8144ZM72.3033 6.51556L96.1911 20.3078L88.1178 34.0511L72.3033 6.51556ZM73.89 64.6978C73.2611 64.2245 72.5456 63.8611 71.7711 63.6344V14.2222L94.0222 52.9667L73.89 64.6967V64.6978ZM90.5844 38.3467L97.2322 27.0256L120.204 67.2422L111.697 67.1622C110.727 65.0956 108.628 63.6633 106.194 63.6633C105.847 63.6633 105.506 63.6945 105.174 63.75L90.5833 38.3456L90.5844 38.3467ZM41.8822 20.9833L13.3022 69.9611V37.4844L41.8822 20.9822V20.9833ZM57.8489 128.237V98.3256H19.5544L41.7333 59.4211C42.23 59.5367 42.7467 59.6 43.2778 59.6C44.7489 59.6 46.1089 59.1311 47.2211 58.3367L53.4956 62.0867V92.8644C53.4956 94.05 54.4578 95.0156 55.6456 95.0156C56.8333 95.0156 57.7978 94.05 57.7978 92.8644V59.6489L49.7611 54.8467C49.9644 54.2011 50.0744 53.5156 50.0744 52.8033C50.0744 50.9789 49.3544 49.3244 48.1856 48.1044L67.4689 14.2789V63.8256C65 64.7944 63.2511 67.1978 63.2511 70.0111C63.2511 72.8244 65 75.2278 67.4689 76.1978V115.72C67.4689 116.908 68.43 117.87 69.6189 117.87C70.8078 117.87 71.7689 116.907 71.7689 115.72V76.3878C74.5267 75.5778 76.54 73.03 76.54 70.0111C76.54 69.4078 76.4578 68.8233 76.3067 68.2667L96.1622 56.6989L101.463 65.9289C100.621 66.9711 100.117 68.2978 100.117 69.7411C100.117 69.9267 100.127 70.1089 100.142 70.29L81.4578 81.1411V92.8656C81.4578 94.0511 82.42 95.0167 83.6067 95.0167C84.7933 95.0167 85.7567 94.0511 85.7567 92.8656V83.6178L102.029 74.1667C103.117 75.1911 104.581 75.82 106.192 75.82C106.502 75.82 106.806 75.7967 107.103 75.7522L120.069 98.3278H81.6667V128.047C81.6667 128.057 81.6678 128.068 81.6678 128.078L69.6167 135.036L57.8456 128.239L57.8489 128.237ZM125.753 102.624L85.97 125.593V102.624H125.753Z" fill="#00AF50"/>
</svg>
